<svg width="24" height="26" viewBox="0 0 24 26" fill="none" xmlns="http://www.w3.org/2000/svg">
<g clip-path="url(#clip0_46_226)">
<mask id="mask0_46_226" style="mask-type:luminance" maskUnits="userSpaceOnUse" x="0" y="0" width="23" height="26">
<path d="M22.9081 0.259766H0V25.5229H22.9081V0.259766Z" fill="white"/>
</mask>
<g mask="url(#mask0_46_226)">
<path d="M8.17186 5.06597C8.48643 5.06136 8.79703 4.99483 9.0859 4.87017C9.37476 4.7455 9.63625 4.56516 9.85541 4.33942C10.0746 4.1137 10.2471 3.84701 10.3632 3.55459C10.4793 3.26218 10.5366 2.94975 10.5319 2.63517C10.5286 2.3195 10.4631 2.00758 10.3391 1.71727C10.2151 1.42696 10.035 1.16396 9.80921 0.943331C9.58342 0.722703 9.31633 0.548777 9.02323 0.431515C8.73012 0.314252 8.41677 0.255954 8.10111 0.259959C7.46973 0.267935 6.86693 0.524358 6.42328 0.973673C5.97965 1.42299 5.73091 2.02901 5.73096 2.66043C5.73294 2.97876 5.79768 3.29357 5.92148 3.58682C6.04528 3.88009 6.22572 4.14606 6.45245 4.3695C6.67917 4.59294 6.94774 4.76947 7.24279 4.88899C7.53783 5.00849 7.85354 5.06863 8.17186 5.06597Z" fill="#003087"/>
<path d="M22.7107 20.9293L18.2938 13.5763C18.1713 13.368 17.9972 13.195 17.7883 13.0737C17.5793 12.9524 17.3428 12.887 17.1011 12.8839H11.0368L10.9711 11.5194H15.388C15.6773 11.5144 15.9537 11.3982 16.1597 11.195C16.3657 10.9918 16.4857 10.7171 16.4947 10.4278C16.4881 10.1387 16.3686 9.86366 16.1617 9.66154C15.9549 9.45941 15.6772 9.34628 15.388 9.34635H10.8397L10.6881 7.70392C10.667 7.39413 10.5847 7.09159 10.446 6.8138C10.3073 6.53599 10.1149 6.28844 9.87992 6.08544C9.64496 5.88244 9.3721 5.72801 9.07711 5.63109C8.78212 5.53416 8.47083 5.49667 8.16127 5.52076C7.55269 5.56612 6.98551 5.84594 6.57919 6.30127C6.17288 6.7566 5.95919 7.35188 5.98314 7.96166L6.40258 14.3849C6.46132 14.9963 6.75036 15.5626 7.21112 15.969C7.67187 16.3753 8.26987 16.5912 8.88393 16.573H16.5199C16.5952 16.5735 16.6692 16.5932 16.7347 16.6304C16.8002 16.6675 16.8551 16.7209 16.894 16.7854L20.2596 22.3443C20.4576 22.6617 20.7697 22.891 21.1317 22.9851C21.4937 23.079 21.878 23.0305 22.2053 22.8496C22.5273 22.6609 22.7611 22.3523 22.8558 21.9913C22.9505 21.6305 22.8984 21.2467 22.7107 20.9242V20.9293Z" fill="#003087"/>
<path d="M16.4246 19.519C16.3833 19.4526 16.3247 19.3984 16.2552 19.3624C16.1856 19.3264 16.1077 19.3098 16.0295 19.3144C15.9513 19.3191 15.8758 19.3448 15.8111 19.3888C15.7463 19.4329 15.6947 19.4935 15.6616 19.5645C14.887 21.1608 13.5532 22.4168 11.9135 23.0941C10.2737 23.7714 8.44225 23.8229 6.76708 23.2385C5.36397 22.7501 4.14522 21.8415 3.27636 20.6363C2.4075 19.4311 1.93064 17.9877 1.91054 16.5021C1.91392 15.5392 2.11376 14.5873 2.49785 13.7045C2.88193 12.8216 3.44216 12.0264 4.14425 11.3675C4.19034 11.3256 4.22652 11.2739 4.25011 11.2162C4.27372 11.1585 4.28417 11.0962 4.28071 11.034L4.22006 9.69479C4.2152 9.61614 4.18929 9.54024 4.14505 9.47504C4.10081 9.40984 4.03985 9.35772 3.96857 9.32414C3.89728 9.29057 3.81828 9.27676 3.73984 9.28418C3.66139 9.29159 3.58639 9.31996 3.52266 9.3663C2.42644 10.2001 1.53708 11.2753 0.923582 12.5085C0.310086 13.7416 -0.0110462 15.0995 -0.0148926 16.4767C-0.00105982 17.6806 0.25028 18.8699 0.724709 19.9763C1.19914 21.0828 1.88733 22.0848 2.74981 22.9246C3.61228 23.7646 4.63209 24.426 5.75075 24.871C6.8694 25.316 8.06488 25.5358 9.26864 25.5178C10.8482 25.4962 12.3952 25.0659 13.7591 24.2689C15.1229 23.4718 16.2571 22.3351 17.0513 20.9695C17.0908 20.9029 17.1118 20.827 17.1118 20.7496C17.1118 20.6723 17.0908 20.5962 17.0513 20.5298L16.4246 19.519Z" fill="#003087"/>
</g>
</g>
<defs>
<clipPath id="clip0_46_226">
<rect width="24" height="25.2632" fill="white" transform="translate(0 0.259766)"/>
</clipPath>
</defs>
</svg>
