<svg width="136" height="33" viewBox="0 0 136 33" fill="none" xmlns="http://www.w3.org/2000/svg">
<g clip-path="url(#clip0_656_844)">
<mask id="mask0_656_844" style="mask-type:luminance" maskUnits="userSpaceOnUse" x="0" y="1" width="136" height="32">
<path d="M135.18 1.19238H0.850098V32.1923H135.18V1.19238Z" fill="white"/>
</mask>
<g mask="url(#mask0_656_844)">
<path d="M21.3501 26.8322C19.9701 27.1822 15.9401 28.3122 12.8701 28.3122C5.12012 28.3122 0.850098 24.1022 0.850098 14.9522C0.850098 4.20215 8.34017 1.20215 14.1702 1.20215C17.7402 1.20215 22.1901 2.37214 22.1901 4.82214C22.1901 5.13214 22.0801 5.56216 22.0001 5.72216L20.6602 8.64215H20.0801C19.5001 5.99215 17.8902 3.11215 12.6702 3.11215C6.95017 3.11215 4.45007 6.73215 4.45007 13.5522C4.45007 21.6922 7.44015 26.4122 14.2802 26.4122C16.4702 26.4122 18.4302 25.9422 18.4302 24.3122V21.5822C18.4302 19.8622 18.4301 19.8321 16.8601 19.3221L14.7902 18.6222V17.8422H23.9302V18.6222L23.0101 19.0522C21.6301 19.7122 21.6301 19.5221 21.6301 21.3521V26.5322L21.3601 26.8422L21.3501 26.8322Z" fill="#003087"/>
<path d="M23.8801 27.802H30.8901V27.192L29.7301 26.712C28.7201 26.352 28.7501 26.292 28.7501 24.142V19.052C28.7501 18.262 28.9002 18.172 29.5502 18.172H30.0901C31.3401 18.172 31.4001 18.322 32.3301 19.802L36.6301 26.732C36.9901 27.342 37.6101 27.792 38.4801 27.792H41.1602V27.182C39.8802 26.482 39.3701 25.942 37.9401 23.792L34.2401 18.312C34.0901 18.102 33.9102 17.892 33.9102 17.612C33.9102 16.882 38.2101 17.072 38.2101 11.952C38.2101 8.71193 36.2401 7.50195 33.2301 7.50195H23.8901V8.11194L25.2902 8.56195C26.2702 8.89195 26.2701 9.23195 26.2701 11.442V24.122C26.2701 26.032 26.2702 26.392 25.2902 26.692L23.8901 27.172V27.782L23.8801 27.802ZM28.7401 10.152C28.7401 8.85195 28.7401 8.67194 30.7101 8.67194C33.5101 8.67194 35.3601 9.55193 35.4501 12.882C35.4501 15.882 33.9001 16.972 30.7101 16.972C28.8301 16.972 28.7401 16.972 28.7401 16.062V10.162V10.152Z" fill="#003087"/>
<path d="M40.7402 27.2022L42.1403 26.7222C43.1003 26.4222 43.1302 26.0222 43.1302 23.8822V11.4722C43.1302 9.44223 43.1303 8.93223 42.1403 8.59223L40.7402 8.14222V7.53223H54.7903L55.0002 7.74222V12.2522H54.1902L53.3903 10.7122C52.4003 8.86222 51.9903 8.74222 49.4203 8.74222C45.6003 8.74222 45.6002 8.89223 45.6002 10.1622V15.3922C45.6002 16.4522 45.6602 16.5122 46.9402 16.5122H49.1803C50.2503 16.5122 50.5502 16.4222 51.1202 15.0022L51.5403 13.9722H52.1403V20.2722H51.5403L51.1503 19.3322C50.5203 17.8222 50.4002 17.7322 49.2102 17.7322H46.8802C45.6602 17.7322 45.6002 17.8522 45.6002 19.1222V24.2722C45.6002 25.9622 45.6003 26.6022 49.5103 26.6022C53.0903 26.6022 53.4202 26.0922 54.4902 23.7622L55.1503 22.3422H55.9303V27.5822L55.7202 27.8222H40.7502V27.2122L40.7402 27.2022Z" fill="#003087"/>
<path d="M60.4602 27.202L62.0403 26.722C63.1203 26.422 63.1403 26.082 63.1403 23.882V21.492C63.1403 19.832 62.7503 19.192 61.9203 17.502L60.0103 13.692C58.2203 10.122 57.8303 9.12199 56.5503 8.51199L55.7402 8.15201V7.54199H62.7803V8.15201L61.5902 8.60199C60.8702 8.87199 60.6302 8.912 60.6302 9.302C60.6302 9.572 61.0502 10.512 61.6102 11.662L64.4702 17.502C64.6502 17.892 64.8303 18.202 65.0103 18.202C65.1603 18.202 65.1903 18.202 65.4003 17.782L67.9103 12.752C68.8303 10.902 69.2803 9.752 69.2803 9.302C69.2803 8.972 68.9803 8.88201 68.5603 8.72201L67.1603 8.15201V7.54199H73.3302V8.15201L72.7903 8.392C71.3303 9.062 71.2703 9.33199 69.1803 13.172L66.8502 17.472C65.9302 19.262 65.6002 19.562 65.6002 21.562V23.892C65.6002 26.102 65.5703 26.402 66.6703 26.732L68.2502 27.212V27.822H60.4303V27.212L60.4602 27.202Z" fill="#003087"/>
<path d="M83.6302 12.5121C83.1802 10.9721 82.1103 8.61206 79.1503 8.61206C76.8203 8.61206 75.5103 9.91205 75.5103 11.8521C75.5103 14.8221 78.5203 15.3021 80.4303 16.1221C82.8803 17.1821 85.7402 17.2121 85.7402 21.6321C85.7402 25.3521 82.5803 28.2021 78.4303 28.2021C76.1303 28.2021 73.7503 26.8421 73.3903 26.2921C73.1203 25.9021 73.0303 25.3521 73.0303 25.1421C73.0303 24.8721 73.1502 24.7121 73.2402 24.3821L74.1902 21.9021H74.6703C74.9703 23.6621 76.0703 26.7121 79.6803 26.7121C82.5403 26.7121 83.4402 24.8621 83.4402 22.6521C83.4402 19.1721 80.3403 18.6521 77.6503 17.7721C75.5003 17.0821 73.4103 16.2021 73.4103 12.8721C73.4103 9.15207 76.9002 7.12207 79.8302 7.12207C83.0202 7.12207 85.0203 8.24205 85.0203 9.54205C85.0203 9.78205 84.9302 10.0021 84.8702 10.2021L84.0702 12.5021H83.6202L83.6302 12.5121Z" fill="#003087"/>
<path d="M90.3702 27.202L91.9502 26.722C93.0802 26.422 93.1102 26.302 93.1102 24.182V9.802C93.1102 8.832 93.1103 8.682 91.5603 8.682C89.1403 8.682 88.5503 9.04201 87.8003 10.442L86.8702 12.202H86.0303V7.75201L86.2703 7.54199H102.44L102.65 7.75201V12.202H101.81L100.92 10.442C100.17 8.99201 99.6102 8.682 97.1902 8.682C95.6102 8.682 95.5802 8.832 95.5802 9.802V24.182C95.5802 26.242 95.5803 26.392 96.8003 26.722L98.3802 27.202V27.812H90.3502V27.202H90.3702Z" fill="#003087"/>
<path d="M98.79 27.8017H105.44V27.1917L103.92 26.6817C103.29 26.4717 103.06 26.3517 103.06 25.8617C103.06 25.2917 103.3 24.7717 103.51 24.1317L104.52 21.1317C105.03 19.6517 105.24 19.5917 106.49 19.5917H110.58C111.39 19.5917 111.65 19.6817 111.92 20.5017L113.38 25.1017C113.47 25.4017 113.62 25.7017 113.62 26.0117C113.62 26.3717 113.29 26.5617 112.87 26.6817L111.2 27.1917V27.8017H118.42V27.1917L117.5 26.8017C116.19 26.2517 116.25 25.8917 115.62 24.0417L110.04 7.63172L109.89 7.51172H108.34L108.16 7.63172L101.69 23.8617C101.06 25.4317 100.97 26.2217 99.8101 26.7417L98.8 27.2017V27.8117L98.79 27.8017ZM108.13 11.1217C108.22 10.8817 108.31 10.5817 108.49 10.5817C108.67 10.5817 108.73 10.7617 108.94 11.4017L110.88 17.5117C110.91 17.6317 111.03 17.8117 111.03 17.9617C111.03 18.2617 110.82 18.3817 110.37 18.3817H106.58C105.98 18.3817 105.72 18.3817 105.72 18.0517C105.72 17.8417 105.78 17.7517 105.87 17.4717L108.14 11.1117L108.13 11.1217Z" fill="#003087"/>
<path d="M117.91 27.802H124.92V27.192L123.76 26.712C122.75 26.352 122.78 26.292 122.78 24.142V19.052C122.78 18.262 122.93 18.172 123.59 18.172H124.13C125.38 18.172 125.44 18.322 126.37 19.802L130.67 26.732C131.02 27.342 131.65 27.792 132.52 27.792H135.21V27.182C133.93 26.482 133.42 25.942 131.99 23.792L128.29 18.312C128.14 18.102 127.96 17.892 127.96 17.612C127.96 16.882 132.25 17.072 132.25 11.952C132.25 8.71193 130.28 7.50195 127.27 7.50195H117.93V8.11194L119.33 8.56195C120.32 8.89195 120.32 9.23195 120.32 11.442V24.122C120.32 26.032 120.32 26.392 119.33 26.692L117.93 27.172V27.782L117.91 27.802ZM122.77 10.152C122.77 8.85195 122.77 8.67194 124.74 8.67194C127.55 8.67194 129.39 9.55193 129.48 12.882C129.48 15.882 127.93 16.972 124.74 16.972C122.86 16.972 122.77 16.972 122.77 16.062V10.162V10.152Z" fill="#003087"/>
</g>
<path d="M135.01 30.6826H1.62012V32.1926H135.01V30.6826Z" fill="#003087"/>
<path d="M135.01 1.54297H24.52V2.30298H135.01V1.54297Z" fill="#003087"/>
</g>
<defs>
<clipPath id="clip0_656_844">
<rect width="136" height="32" fill="white" transform="translate(0 0.522461)"/>
</clipPath>
</defs>
</svg>
