<svg xmlns="http://www.w3.org/2000/svg" width="100%" viewBox="0 0 133 95" fill="#fff" class="map_logo active"><path d="M36.5087 29H26.3073V28.5124C29.4202 28.5124 29.8328 28.0624 29.8328 25.9621V6.53428C29.8328 4.35897 29.4952 3.98392 26.3073 3.98392V3.49635H36.5087V3.98392C33.3208 3.98392 32.9457 4.35897 32.9457 6.53428V25.9621C32.9457 28.0624 33.3583 28.5124 36.5087 28.5124V29ZM48.7809 29.5251C44.5428 29.5251 42.8551 27.9874 42.18 27.9874C41.6549 27.9874 41.2048 28.3624 40.9048 29.1875H40.6047V20.0737H41.0548C42.33 25.7745 44.7303 29.0375 48.9309 29.0375C51.9314 29.0375 53.9191 27.1622 53.9191 24.1618C53.9191 21.6865 52.8315 20.1112 49.7936 18.5735L46.043 16.6607C42.5175 14.8605 40.9048 12.6477 40.9048 9.4222C40.9048 5.37162 43.8677 2.97127 48.7809 2.97127C52.7565 2.97127 54.3317 4.50899 55.1193 4.50899C55.5694 4.50899 55.9069 4.17144 56.1695 3.30882H56.4695V11.4475H56.057C55.0443 6.6468 52.794 3.45884 48.7059 3.45884C45.593 3.45884 43.6802 5.2591 43.6802 8.14701C43.6802 10.6224 44.7678 12.0476 47.7683 13.6228L51.5938 15.5731C55.0443 17.3358 56.6945 19.5486 56.6945 22.7366C56.6945 26.9747 53.6566 29.5251 48.7809 29.5251ZM81.1006 29H60.7727V28.5124C63.8856 28.5124 64.2982 28.0624 64.2982 25.9621V6.53428C64.2982 4.35897 63.9606 3.98392 60.7727 3.98392V3.49635H71.1992V3.98392C67.7862 3.98392 67.4111 4.43398 67.4111 6.49678V25.1369C67.4111 27.9123 68.0862 28.4374 70.8616 28.4374H74.4621C78.3252 28.4374 79.9754 26.1871 81.5881 20.0737H82.0757L81.1006 29ZM106.067 21.3864H106.517L105.992 29H84.7263V28.5124C87.8392 28.5124 88.2518 28.0624 88.2518 25.9621V6.53428C88.2518 4.35897 87.9142 3.98392 84.7263 3.98392V3.49635H105.692L106.029 9.94727H105.617C104.904 6.15923 102.879 3.98392 98.0407 3.98392H91.3647V15.7231H97.2156C101.116 15.7231 102.354 14.973 102.354 11.4475H102.766V20.5238H102.354C102.354 16.9983 101.116 16.2107 97.2156 16.2107H91.3647V25.6995C91.3647 28.0249 91.8898 28.5124 94.5902 28.5124H98.6033C103.441 28.5124 105.354 25.0619 106.067 21.3864ZM28.9284 37.4963V37.9839C25.7405 37.9839 25.4029 38.359 25.4029 40.5343V59.9621C25.4029 62.0624 25.8155 62.5124 28.9284 62.5124V63H18.727V62.5124C21.8774 62.5124 22.29 62.0624 22.29 59.9621V49.9481H8.90055V59.9621C8.90055 62.0624 9.31311 62.5124 12.4636 62.5124V63H2.2621V62.5124C5.37504 62.5124 5.7876 62.0624 5.7876 59.9621V40.5343C5.7876 38.359 5.45005 37.9839 2.2621 37.9839V37.4963H12.4636V37.9839C9.2756 37.9839 8.90055 38.359 8.90055 40.5343V49.4606H22.29V40.5343C22.29 38.359 21.9149 37.9839 18.727 37.9839V37.4963H28.9284ZM45.3153 63.5251C38.0393 63.5251 32.2635 58.2368 32.2635 50.2482C32.2635 42.2595 38.0393 36.9713 45.3153 36.9713C52.6289 36.9713 58.4047 42.2595 58.4047 50.2482C58.4047 58.2368 52.6289 63.5251 45.3153 63.5251ZM45.3153 63.0375C51.0161 63.0375 54.7292 57.9743 54.7292 50.2482C54.7292 42.5221 51.0161 37.4588 45.3153 37.4588C39.652 37.4588 35.939 42.5221 35.939 50.2482C35.939 57.9743 39.652 63.0375 45.3153 63.0375ZM73.4816 63.5251C67.4432 63.5251 63.7677 60.1871 63.7677 53.9987V40.4593C63.7677 38.3215 63.5051 37.9839 61.4048 37.9839V37.4963H70.9312V37.9839C67.4432 37.9839 67.1057 38.3215 67.1057 40.4593V53.9237C67.1057 59.0619 69.6935 61.7623 74.1192 61.7623C78.9198 61.7623 81.6952 58.9869 81.6952 53.2861V40.7593C81.6952 38.359 81.0577 37.9839 77.4571 37.9839V37.4963H84.8832V37.9839C82.8579 37.9839 82.3328 38.3965 82.3328 40.7593V53.4736C82.3328 59.9246 79.1449 63.5251 73.4816 63.5251ZM96.7797 63.5251C92.5416 63.5251 90.8539 61.9874 90.1788 61.9874C89.6537 61.9874 89.2036 62.3624 88.9036 63.1875H88.6036V54.0737H89.0536C90.3288 59.7745 92.7291 63.0375 96.9297 63.0375C99.9302 63.0375 101.918 61.1622 101.918 58.1618C101.918 55.6865 100.83 54.1112 97.7924 52.5735L94.0418 50.6607C90.5163 48.8605 88.9036 46.6477 88.9036 43.4222C88.9036 39.3716 91.8665 36.9713 96.7797 36.9713C100.755 36.9713 102.331 38.509 103.118 38.509C103.568 38.509 103.906 38.1714 104.168 37.3088H104.468V45.4475H104.056C103.043 40.6468 100.793 37.4588 96.7047 37.4588C93.5918 37.4588 91.679 39.2591 91.679 42.147C91.679 44.6224 92.7666 46.0476 95.7671 47.6228L99.5926 49.5731C103.043 51.3358 104.693 53.5486 104.693 56.7366C104.693 60.9747 101.655 63.5251 96.7797 63.5251ZM130.112 55.3864H130.562L130.037 63H108.771V62.5124C111.884 62.5124 112.297 62.0624 112.297 59.9621V40.5343C112.297 38.359 111.959 37.9839 108.771 37.9839V37.4963H129.737L130.075 43.9473H129.662C128.949 40.1592 126.924 37.9839 122.086 37.9839H115.41V49.7231H121.261C125.161 49.7231 126.399 48.973 126.399 45.4475H126.812V54.5238H126.399C126.399 50.9983 125.161 50.2107 121.261 50.2107H115.41V59.6995C115.41 62.0249 115.935 62.5124 118.635 62.5124H122.648C127.487 62.5124 129.399 59.0619 130.112 55.3864Z" fill="#fff"></path><path d="M7.22679 91.5659V84.1646H4.80158V82.5813H11.7002V84.1646H9.27503V91.5659H7.22679ZM13.5937 91.5659V82.5813H16.8105C18.9342 82.5813 20.2787 83.4483 20.2787 85.3081V85.3583C20.2787 86.7154 19.4871 87.4317 18.4315 87.7458L20.8065 91.5659H18.6451L16.4964 88.0977H15.6168V91.5659H13.5937ZM15.6168 86.7154H16.7603C17.7781 86.7154 18.2933 86.2882 18.2933 85.4212V85.3709C18.2933 84.4536 17.7404 84.1394 16.7603 84.1394H15.6168V86.7154ZM22.6646 91.5659V82.5813H28.5203V84.1646H24.6878V86.2631H27.7538V87.7458H24.6878V89.9826H28.7214V91.5659H22.6646ZM30.0625 91.5659L33.0155 82.5813H35.6669L38.5822 91.5659H36.4585L35.8428 89.5679H32.5882L31.9725 91.5659H30.0625ZM34.2218 84.24L33.0281 88.1228H35.403L34.2218 84.24ZM43.3959 91.7041C40.933 91.7041 39.802 90.548 39.6889 88.7511H41.6367C41.7246 89.5553 42.0639 90.2213 43.3959 90.2213C44.288 90.2213 44.8786 89.7312 44.8786 89.0276C44.8786 88.3113 44.5017 88.06 43.1823 87.8589C40.8827 87.5574 39.9403 86.8662 39.9403 85.1321C39.9403 83.5991 41.222 82.4556 43.2074 82.4556C45.2305 82.4556 46.4117 83.3604 46.575 85.1447H44.7027C44.5771 84.3279 44.0996 83.9509 43.2074 83.9509C42.3152 83.9509 41.8628 84.3656 41.8628 84.9688C41.8628 85.6096 42.1519 85.9112 43.5341 86.1123C45.708 86.3887 46.8264 86.9793 46.8264 88.8391C46.8264 90.4349 45.5195 91.7041 43.3959 91.7041ZM52.4906 91.7041C50.1282 91.7041 48.7837 90.4475 48.7837 88.06V82.5813H50.8319V87.9343C50.8319 89.4297 51.2717 90.0831 52.5032 90.0831C53.7095 90.0831 54.2373 89.5051 54.2373 87.8589V82.5813H56.2855V87.9846C56.2855 90.4349 54.9158 91.7041 52.4906 91.7041ZM58.7768 91.5659V82.5813H61.9936C64.1173 82.5813 65.4618 83.4483 65.4618 85.3081V85.3583C65.4618 86.7154 64.6702 87.4317 63.6146 87.7458L65.9896 91.5659H63.8283L61.6795 88.0977H60.7999V91.5659H58.7768ZM60.7999 86.7154H61.9434C62.9612 86.7154 63.4764 86.2882 63.4764 85.4212V85.3709C63.4764 84.4536 62.9235 84.1394 61.9434 84.1394H60.7999V86.7154ZM67.8478 91.5659V82.5813H73.7035V84.1646H69.8709V86.2631H72.937V87.7458H69.8709V89.9826H73.9045V91.5659H67.8478ZM79.4135 91.5659V82.5813H81.4617V91.5659H79.4135ZM87.2193 91.7041C84.7564 91.7041 83.6255 90.548 83.5124 88.7511H85.4601C85.5481 89.5553 85.8874 90.2213 87.2193 90.2213C88.1115 90.2213 88.7021 89.7312 88.7021 89.0276C88.7021 88.3113 88.3251 88.06 87.0057 87.8589C84.7062 87.5574 83.7637 86.8662 83.7637 85.1321C83.7637 83.5991 85.0454 82.4556 87.0308 82.4556C89.054 82.4556 90.2351 83.3604 90.3985 85.1447H88.5262C88.4005 84.3279 87.923 83.9509 87.0308 83.9509C86.1387 83.9509 85.6863 84.3656 85.6863 84.9688C85.6863 85.6096 85.9753 85.9112 87.3576 86.1123C89.5315 86.3887 90.6498 86.9793 90.6498 88.8391C90.6498 90.4349 89.343 91.7041 87.2193 91.7041ZM92.7439 91.5659V82.5813H94.7796V89.97H98.4362V91.5659H92.7439ZM99.7613 91.5659L102.714 82.5813H105.366L108.281 91.5659H106.157L105.542 89.5679H102.287L101.671 91.5659H99.7613ZM103.921 84.24L102.727 88.1228H105.102L103.921 84.24ZM110.137 91.5659V82.5813H112.5L115.918 88.4998V82.5813H117.727V91.5659H115.691L111.947 85.1698V91.5659H110.137ZM122.324 89.9826H123.153C124.963 89.9826 125.817 88.9647 125.817 87.105V87.0045C125.817 85.1573 125.026 84.1646 123.128 84.1646H122.324V89.9826ZM120.288 91.5659V82.5813H123.229C126.383 82.5813 127.941 84.2902 127.941 86.9793V87.0798C127.941 89.7689 126.37 91.5659 123.216 91.5659H120.288Z" fill="#fff"></path></svg>