<svg xmlns="http://www.w3.org/2000/svg" width="100%" viewBox="0 0 60 60" fill="none" class="g_header_badge" style="translate: none; rotate: none; scale: none; transform: translate(0px, 0px); opacity: 1;"><rect x="0.5" y="0.5" width="59" height="59" rx="29.5" stroke="#003087"></rect><path d="M44.44 16V16.52C41.04 16.52 40.68 16.92 40.68 19.24V39.96C40.68 42.2 41.12 42.68 44.44 42.68V43.2H33.56V42.68C36.92 42.68 37.36 42.2 37.36 39.96V29.28H23.08V39.96C23.08 42.2 23.52 42.68 26.88 42.68V43.2H16V42.68C19.32 42.68 19.76 42.2 19.76 39.96V19.24C19.76 16.92 19.4 16.52 16 16.52V16H26.88V16.52C23.48 16.52 23.08 16.92 23.08 19.24V28.76H37.36V19.24C37.36 16.92 36.96 16.52 33.56 16.52V16H44.44Z" fill="#003087"></path></svg>