<svg xmlns="http://www.w3.org/2000/svg" width="100%" viewBox="0 0 16 16" fill="none" class="footer-social-icon insta"><g clip-path="url(#clip0_114_798)"><path d="M3.98489 1.41113C2.31843 1.41113 0.95459 2.77497 0.95459 4.44143V12.9263C0.95459 14.5928 2.31843 15.9566 3.98489 15.9566H12.4697C14.1362 15.9566 15.5 14.5928 15.5 12.9263V4.44143C15.5 2.77497 14.1362 1.41113 12.4697 1.41113H3.98489ZM3.98489 2.62325H12.4697C13.4813 2.62325 14.2879 3.42992 14.2879 4.44143V6.25961H10.8938C10.2276 5.5269 9.29043 5.04749 8.22732 5.04749C7.16421 5.04749 6.22706 5.5269 5.56081 6.25961H2.16671V4.44143C2.16671 3.42992 2.97338 2.62325 3.98489 2.62325ZM11.2576 3.83537C11.1773 3.83424 11.0976 3.84907 11.023 3.87902C10.9485 3.90897 10.8807 3.95343 10.8235 4.00982C10.7663 4.06621 10.7209 4.13341 10.6899 4.2075C10.6589 4.2816 10.6429 4.36111 10.6429 4.44143C10.6429 4.52175 10.6589 4.60127 10.6899 4.67536C10.7209 4.74946 10.7663 4.81665 10.8235 4.87304C10.8807 4.92944 10.9485 4.9739 11.023 5.00384C11.0976 5.03379 11.1773 5.04863 11.2576 5.04749H12.4697C12.5501 5.04863 12.6298 5.03379 12.7043 5.00384C12.7788 4.9739 12.8467 4.92944 12.9039 4.87304C12.9611 4.81665 13.0065 4.74946 13.0375 4.67536C13.0685 4.60127 13.0844 4.52175 13.0844 4.44143C13.0844 4.36111 13.0685 4.2816 13.0375 4.2075C13.0065 4.13341 12.9611 4.06621 12.9039 4.00982C12.8467 3.95343 12.7788 3.90897 12.7043 3.87902C12.6298 3.84907 12.5501 3.83424 12.4697 3.83537H11.2576ZM8.22732 6.25961C9.57337 6.25961 10.6516 7.33781 10.6516 8.68386C10.6516 10.0299 9.57337 11.1081 8.22732 11.1081C6.88127 11.1081 5.80307 10.0299 5.80307 8.68386C5.80307 7.33781 6.88127 6.25961 8.22732 6.25961ZM2.16671 7.47174H4.83638C4.69841 7.8548 4.59095 8.25459 4.59095 8.68386C4.59095 10.685 6.22619 12.3203 8.22732 12.3203C10.2285 12.3203 11.8637 10.685 11.8637 8.68386C11.8637 8.25459 11.7562 7.8548 11.6183 7.47174H14.2879V12.9263C14.2879 13.9378 13.4813 14.7445 12.4697 14.7445H3.98489C2.97338 14.7445 2.16671 13.9378 2.16671 12.9263V7.47174Z" fill="currentColor"></path></g><defs><clipPath id="clip0_114_798"><rect width="15" height="15" fill="currentColor" transform="translate(0.5 0.957031)"></rect></clipPath></defs></svg>