<svg xmlns="http://www.w3.org/2000/svg" width="100%" viewBox="0 0 200 38" fill="none" class="nav_logo"><path d="M0 21.9162V21.5093C2.61106 21.5093 2.95015 21.1363 2.95015 19.373V3.13015C2.95015 1.31597 2.66192 0.993836 0 0.993836V0.586914H8.52832V0.993836C5.8664 0.993836 5.54425 1.29902 5.54425 3.13015V19.373C5.54425 21.1363 5.88335 21.5093 8.52832 21.5093V21.9162H0Z" fill="#F96339"></path><path d="M15.0219 21.0685C14.5811 21.0685 14.2081 21.3737 13.9538 22.0688H13.6995V14.4561H14.0725C15.1406 19.2204 17.1413 21.9501 20.651 21.9501C24.1606 21.9501 24.8219 20.3903 24.8219 17.8809C24.8219 15.3716 23.9063 14.49 21.38 13.2014L18.2434 11.6076C15.2932 10.0986 13.9538 8.25056 13.9538 5.55473C13.9538 2.8589 16.4292 0.163071 20.5323 0.163071C24.6354 0.163071 25.1779 1.45164 25.8392 1.45164C26.5004 1.45164 26.5004 1.16341 26.7208 0.451306H26.9752V7.25022H26.6361C25.7883 3.23191 23.9063 0.569993 20.4814 0.569993C17.0565 0.569993 16.2766 2.07897 16.2766 4.48657C16.2766 6.89417 17.1922 7.74191 19.7015 9.0644L22.906 10.6921C25.7883 12.1671 27.1786 14.0152 27.1786 16.6772C27.1786 19.3391 24.6354 22.357 20.5662 22.357C16.497 22.357 15.6154 21.0685 15.0389 21.0685H15.0219Z" fill="#F96339"></path><path d="M32.333 21.9162V21.5093C34.9441 21.5093 35.2832 21.1363 35.2832 19.373V3.13015C35.2832 1.31597 34.9949 0.993836 32.333 0.993836V0.586914H41.0478V0.993836C38.1994 0.993836 37.8773 1.36684 37.8773 3.09624V18.6778C37.8773 21.0006 38.4368 21.4414 40.7596 21.4414H43.7776C47.016 21.4414 48.3893 19.5595 49.7287 14.456H50.1357L49.3218 21.9162H32.333Z" fill="#F96339"></path><path d="M72.3635 15.541L71.9227 21.8991H54.137V21.4922C56.748 21.4922 57.0871 21.1192 57.0871 19.3559V3.11306C57.0871 1.29889 56.7989 0.976741 54.137 0.976741V0.569824H71.6683L71.9566 5.96148H71.6175C71.024 2.79091 69.3286 0.976741 65.2763 0.976741H59.6982V10.7936H64.5981C67.8535 10.7936 68.8877 10.1663 68.8877 7.21614H69.2268V14.8119H68.8877C68.8877 11.8618 67.8535 11.2005 64.5981 11.2005H59.6982V19.1354C59.6982 21.0853 60.139 21.4922 62.394 21.4922H65.7511C69.8033 21.4922 71.3971 18.6098 71.9905 15.541H72.3635Z" fill="#F96339"></path><path d="M123.584 21.8147C118.922 21.8147 115.92 17.6946 115.92 11.3196C115.92 4.94453 118.938 0.824492 123.584 0.824492C128.23 0.824492 131.282 4.94453 131.282 11.3196C131.282 17.6946 128.264 21.8147 123.584 21.8147ZM123.584 0.197159C117.243 0.197159 112.648 4.87671 112.648 11.3196C112.648 17.7624 117.243 22.442 123.584 22.442C129.925 22.442 134.554 17.7624 134.554 11.3196C134.554 4.87671 129.942 0.197159 123.584 0.197159Z" fill="#F96339"></path><path d="M152.001 1.24871H152.102C155.069 1.24871 155.51 1.53694 155.51 3.43589V13.8292C155.51 18.3562 153.374 20.7468 149.339 20.7468C145.303 20.7468 143.625 18.4749 143.625 14.3548V3.18156C143.625 1.50303 143.828 1.23175 146.694 1.23175H146.795V0.604416H138.674V1.23175H138.776C140.437 1.23175 140.624 1.43521 140.624 3.18156V14.4227C140.624 19.5091 143.608 22.4423 148.796 22.4423C153.984 22.4423 156.256 19.3565 156.256 13.9988V3.45284C156.256 1.51998 156.663 1.26566 158.257 1.26566H158.359V0.638328H151.984V1.26566L152.001 1.24871Z" fill="#F96339"></path><path d="M172.397 10.6587L169.227 9.04795C166.768 7.75938 165.886 6.58949 165.886 4.60577C165.886 2.62204 167.446 0.824825 169.956 0.824825C172.465 0.824825 175.025 3.02896 175.958 7.36941V7.45419H176.517V0.485727H176.076V0.570501C175.805 1.38434 175.517 1.48606 175.279 1.48606C175.042 1.48606 174.856 1.36738 174.5 1.21479C173.686 0.841777 172.329 0.214447 170.023 0.214447C165.869 0.214447 163.377 2.24903 163.377 5.67392C163.377 9.09881 164.717 10.2517 167.701 11.7777L170.82 13.3715C173.245 14.5922 174.177 15.8638 174.177 17.9154C174.177 19.9669 172.601 21.8489 170.142 21.8489C167.684 21.8489 164.818 19.4413 163.716 14.4905V14.4057H163.123V22.188H163.564L163.598 22.1202C163.818 21.5098 164.14 21.1877 164.547 21.1877C164.954 21.1877 164.903 21.2894 165.208 21.425C166.056 21.815 167.48 22.4593 170.023 22.4593C174.143 22.4593 176.704 20.2551 176.704 16.7116C176.704 13.168 175.381 12.1846 172.414 10.6756" fill="#F96339"></path><path d="M199.44 15.4738V15.5586C198.677 19.4243 196.626 21.3911 193.337 21.3911H190.013C187.86 21.3911 187.453 21.0351 187.453 19.17V15.6434V11.4047H192.218C195.524 11.4047 196.372 12.1168 196.372 14.8804V14.9822H196.931V7.23376H196.372V7.33549C196.372 10.0652 195.524 10.7773 192.218 10.7773H187.453V8.70884V1.26563H192.879C196.524 1.26563 198.423 2.75767 199.05 6.13169V6.21647H199.61L199.322 0.740036V0.638306H181.706V1.26563H181.807C184.435 1.26563 184.622 1.53692 184.622 3.26632V19.3904C184.622 21.0351 184.384 21.3911 181.807 21.3911H181.706V22.0184H199.559L200 15.5925V15.4738H199.423H199.44Z" fill="#F96339"></path><path d="M102.492 19.3731V11.167H93.8281V10.5396H102.492V3.24901C102.492 1.55352 102.289 1.24834 99.6437 1.24834H99.5419V0.621002H108.223V1.24834H108.121C105.493 1.24834 105.307 1.51961 105.307 3.24901V19.3731C105.307 21.0178 105.544 21.3738 108.121 21.3738H108.223V22.0011H99.5419V21.3738H99.6437C102.238 21.3738 102.492 21.0178 102.492 19.3731Z" fill="#F96339"></path><path d="M94.5574 1.24834H94.4556C91.8107 1.24834 91.6072 1.55352 91.6072 3.24901V10.5396V11.167V19.3731C91.6072 21.0178 91.8446 21.3738 94.4556 21.3738H94.5574V22.0011H85.8765V21.3738H85.9782C88.5553 21.3738 88.7927 21.0178 88.7927 19.3731V3.24901C88.7927 1.51961 88.6062 1.24834 85.9782 1.24834H85.8765V0.621002H94.5574V1.24834Z" fill="#F96339"></path><path d="M59.8677 32.479V33.2589H61.4614V37.7181H62.4109V33.2589H63.9877V32.479H59.8677Z" fill="#F96339"></path><path d="M66.7683 33.2081V34.9036H67.7687C68.4808 34.9036 68.7351 34.5475 68.7351 34.0558C68.7351 33.5641 68.4638 33.2081 67.7687 33.2081H66.7683ZM68.8368 37.7181L67.6839 35.6157H66.7683V37.7181H65.8188V32.479H67.9213C69.2776 32.479 69.7354 33.1911 69.7354 34.0558C69.7354 34.9205 69.3963 35.2766 68.6334 35.497L69.8711 37.7181H68.8199H68.8368Z" fill="#F96339"></path><path d="M71.804 32.479V37.7181H75.2458V36.9721H72.7534V35.3953H75.0762V34.6662H72.7534V33.225H75.1949V32.479H71.804Z" fill="#F96339"></path><path d="M78.6367 35.6157H80.1795L79.5692 33.8524C79.5183 33.6828 79.4505 33.4963 79.4166 33.2929C79.3657 33.4963 79.3149 33.6828 79.264 33.8524L78.6536 35.6157H78.6367ZM80.9086 37.7181L80.4339 36.3447H78.3823L77.9076 37.7181H76.9412L78.891 32.479H79.9252L81.875 37.7181H80.9086Z" fill="#F96339"></path><path d="M83.2484 36.3618L84.0622 36.0057C84.2318 36.5991 84.6557 37.0739 85.4695 37.0739C86.2833 37.0739 86.5038 36.8534 86.5038 36.3109C86.5038 35.7683 86.1986 35.6327 85.6221 35.514L84.893 35.3614C84.0622 35.1919 83.5197 34.751 83.5197 33.8524C83.5197 32.9538 84.2657 32.3434 85.4356 32.3434C86.6055 32.3434 87.2159 32.7504 87.4363 33.6151L86.6903 34.005C86.5207 33.3946 86.0799 33.0555 85.3847 33.0555C84.6896 33.0555 84.4183 33.3268 84.4183 33.7677C84.4183 34.2085 84.6557 34.4119 85.2321 34.5476L85.9951 34.7171C86.8598 34.9036 87.4363 35.2936 87.4363 36.2261C87.4363 37.1586 86.7581 37.8368 85.4186 37.8368C84.0792 37.8368 83.4519 37.2265 83.2314 36.3618" fill="#F96339"></path><path d="M89.386 32.479H90.3355V35.8361C90.3355 36.5652 90.7593 37.0399 91.4884 37.0399C92.2174 37.0399 92.6413 36.5821 92.6413 35.8361V32.479H93.5908V35.887C93.5908 37.0738 92.8278 37.8368 91.4884 37.8368C90.149 37.8368 89.386 37.0568 89.386 35.887V32.479Z" fill="#F96339"></path><path d="M96.8291 33.2081V34.9036H97.8295C98.5416 34.9036 98.7959 34.5475 98.7959 34.0558C98.7959 33.5641 98.5246 33.2081 97.8295 33.2081H96.8291ZM98.8976 37.7181L97.7447 35.6157H96.8291V37.7181H95.8796V32.479H97.982C99.3384 32.479 99.7962 33.1911 99.7962 34.0558C99.7962 34.9205 99.4571 35.2766 98.6941 35.497L99.9319 37.7181H98.8807H98.8976Z" fill="#F96339"></path><path d="M101.865 32.479V37.7181H105.324V36.9721H102.814V35.3953H105.137V34.6662H102.814V33.225H105.273V32.479H101.865Z" fill="#F96339"></path><path d="M111.428 32.479H110.478V37.7181H111.428V32.479Z" fill="#F96339"></path><path d="M113.343 36.3618L114.157 36.0057C114.327 36.5991 114.751 37.0739 115.564 37.0739C116.378 37.0739 116.599 36.8534 116.599 36.3109C116.599 35.7683 116.294 35.6327 115.717 35.514L114.988 35.3614C114.157 35.1919 113.615 34.751 113.615 33.8524C113.615 32.9538 114.361 32.3434 115.531 32.3434C116.7 32.3434 117.311 32.7504 117.531 33.6151L116.785 34.005C116.616 33.3946 116.175 33.0555 115.48 33.0555C114.785 33.0555 114.513 33.3268 114.513 33.7677C114.513 34.2085 114.751 34.4119 115.327 34.5476L116.09 34.7171C116.955 34.9036 117.531 35.2936 117.531 36.2261C117.531 37.1586 116.853 37.8368 115.514 37.8368C114.174 37.8368 113.547 37.2265 113.326 36.3618" fill="#F96339"></path><path d="M119.532 32.479V37.7181H122.753V36.9382H120.481V32.479H119.532Z" fill="#F96339"></path><path d="M126.026 35.6157H127.568L126.958 33.8524C126.907 33.6828 126.839 33.4963 126.805 33.2929C126.755 33.4963 126.704 33.6828 126.653 33.8524L126.043 35.6157H126.026ZM128.298 37.7181L127.823 36.3447H125.771L125.297 37.7181H124.33L126.28 32.479H127.314L129.264 37.7181H128.298Z" fill="#F96339"></path><path d="M131.112 37.7181V32.479H132.197L134.164 35.9039C134.299 36.1413 134.401 36.3617 134.486 36.5821C134.486 36.3956 134.486 36.1921 134.486 35.9039V32.479H135.351V37.7181H134.282L132.282 34.2762C132.146 34.0219 132.044 33.8354 131.96 33.615C131.96 33.8185 131.96 34.0219 131.96 34.3102V37.7181H131.095H131.112Z" fill="#F96339"></path><path d="M138.623 36.9721H139.505C140.522 36.9721 141.082 36.1243 141.082 35.0731C141.082 34.0219 140.539 33.225 139.505 33.225H138.606V36.9721H138.623ZM137.674 37.7181V32.479H139.556C141.082 32.479 142.082 33.5302 142.082 35.0731C142.082 36.616 141.098 37.7181 139.539 37.7181H137.674Z" fill="#F96339"></path></svg>