<svg xmlns="http://www.w3.org/2000/svg" width="100%" viewBox="0 0 133 96" fill="#003087" class="footer_logo"><path d="M11.9642 29.957H1.76275V29.4695C4.8757 29.4695 5.28826 29.0194 5.28826 26.9191V7.49131C5.28826 5.316 4.95071 4.94095 1.76275 4.94095V4.45338H11.9642V4.94095C8.77626 4.94095 8.4012 5.316 8.4012 7.49131V26.9191C8.4012 29.0194 8.81376 29.4695 11.9642 29.4695V29.957ZM24.2364 30.4821C19.9983 30.4821 18.3105 28.9444 17.6354 28.9444C17.1104 28.9444 16.6603 29.3194 16.3603 30.1446H16.0602V21.0308H16.5103C17.7855 26.7316 20.1858 29.9945 24.3864 29.9945C27.3868 29.9945 29.3746 28.1193 29.3746 25.1188C29.3746 22.6435 28.287 21.0683 25.249 19.5305L21.4985 17.6178C17.973 15.8175 16.3603 13.6047 16.3603 10.3792C16.3603 6.32865 19.3232 3.92831 24.2364 3.92831C28.2119 3.92831 29.7872 5.46602 30.5748 5.46602C31.0249 5.46602 31.3624 5.12848 31.6249 4.26585H31.925V12.4045H31.5124C30.4998 7.60383 28.2495 4.41587 24.1614 4.41587C21.0484 4.41587 19.1356 6.21613 19.1356 9.10405C19.1356 11.5794 20.2233 13.0046 23.2237 14.5798L27.0493 16.5301C30.4998 18.2929 32.15 20.5057 32.15 23.6936C32.15 27.9317 29.1121 30.4821 24.2364 30.4821ZM56.556 29.957H36.2281V29.4695C39.3411 29.4695 39.7536 29.0194 39.7536 26.9191V7.49131C39.7536 5.316 39.4161 4.94095 36.2281 4.94095V4.45338H46.6546V4.94095C43.2416 4.94095 42.8666 5.39101 42.8666 7.45381V26.094C42.8666 28.8694 43.5417 29.3945 46.3171 29.3945H49.9176C53.7806 29.3945 55.4309 27.1441 57.0436 21.0308H57.5312L56.556 29.957ZM81.5223 22.3434H81.9724L81.4473 29.957H60.1818V29.4695C63.2947 29.4695 63.7073 29.0194 63.7073 26.9191V7.49131C63.7073 5.316 63.3697 4.94095 60.1818 4.94095V4.45338H81.1473L81.4848 10.9043H81.0722C80.3596 7.11626 78.3344 4.94095 73.4962 4.94095H66.8202V16.6801H72.671C76.5716 16.6801 77.8093 15.93 77.8093 12.4045H78.2218V21.4808H77.8093C77.8093 17.9553 76.5716 17.1677 72.671 17.1677H66.8202V26.6566C66.8202 28.9819 67.3453 29.4695 70.0457 29.4695H74.0587C78.8969 29.4695 80.8097 26.019 81.5223 22.3434ZM28.4291 38.4534V38.9409C25.2411 38.9409 24.9036 39.316 24.9036 41.4913V60.9191C24.9036 63.0194 25.3161 63.4695 28.4291 63.4695V63.957H18.2276V63.4695C21.3781 63.4695 21.7906 63.0194 21.7906 60.9191V50.9052H8.4012V60.9191C8.4012 63.0194 8.81376 63.4695 11.9642 63.4695V63.957H1.76275V63.4695C4.8757 63.4695 5.28826 63.0194 5.28826 60.9191V41.4913C5.28826 39.316 4.95071 38.9409 1.76275 38.9409V38.4534H11.9642V38.9409C8.77626 38.9409 8.4012 39.316 8.4012 41.4913V50.4176H21.7906V41.4913C21.7906 39.316 21.4156 38.9409 18.2276 38.9409V38.4534H28.4291ZM44.816 64.4821C37.5399 64.4821 31.7641 59.1938 31.7641 51.2052C31.7641 43.2166 37.5399 37.9283 44.816 37.9283C52.1295 37.9283 57.9054 43.2166 57.9054 51.2052C57.9054 59.1938 52.1295 64.4821 44.816 64.4821ZM44.816 63.9945C50.5168 63.9945 54.2298 58.9313 54.2298 51.2052C54.2298 43.4791 50.5168 38.4159 44.816 38.4159C39.1527 38.4159 35.4396 43.4791 35.4396 51.2052C35.4396 58.9313 39.1527 63.9945 44.816 63.9945ZM72.9822 64.4821C66.9439 64.4821 63.2683 61.1441 63.2683 54.9557V41.4163C63.2683 39.2785 63.0058 38.9409 60.9055 38.9409V38.4534H70.4319V38.9409C66.9439 38.9409 66.6063 39.2785 66.6063 41.4163V54.8807C66.6063 60.019 69.1942 62.7194 73.6198 62.7194C78.4205 62.7194 81.1959 59.944 81.1959 54.2431V41.7163C81.1959 39.316 80.5583 38.9409 76.9578 38.9409V38.4534H84.3839V38.9409C82.3586 38.9409 81.8335 39.3535 81.8335 41.7163V54.4307C81.8335 60.8816 78.6455 64.4821 72.9822 64.4821ZM96.2804 64.4821C92.0423 64.4821 90.3545 62.9444 89.6794 62.9444C89.1544 62.9444 88.7043 63.3194 88.4043 64.1446H88.1042V55.0308H88.5543C89.8295 60.7316 92.2298 63.9945 96.4304 63.9945C99.4308 63.9945 101.419 62.1193 101.419 59.1188C101.419 56.6435 100.331 55.0683 97.293 53.5305L93.5425 51.6178C90.017 49.8175 88.4043 47.6047 88.4043 44.3792C88.4043 40.3286 91.3672 37.9283 96.2804 37.9283C100.256 37.9283 101.831 39.466 102.619 39.466C103.069 39.466 103.406 39.1285 103.669 38.2659H103.969V46.4045H103.556C102.544 41.6038 100.293 38.4159 96.2054 38.4159C93.0924 38.4159 91.1797 40.2161 91.1797 43.104C91.1797 45.5794 92.2673 47.0046 95.2677 48.5798L99.0933 50.5301C102.544 52.2929 104.194 54.5057 104.194 57.6936C104.194 61.9317 101.156 64.4821 96.2804 64.4821ZM129.613 56.3434H130.063L129.538 63.957H108.272V63.4695C111.385 63.4695 111.798 63.0194 111.798 60.9191V41.4913C111.798 39.316 111.46 38.9409 108.272 38.9409V38.4534H129.238L129.575 44.9043H129.163C128.45 41.1163 126.425 38.9409 121.587 38.9409H114.911V50.6801H120.761C124.662 50.6801 125.9 49.93 125.9 46.4045H126.312V55.4808H125.9C125.9 51.9553 124.662 51.1677 120.761 51.1677H114.911V60.6566C114.911 62.9819 115.436 63.4695 118.136 63.4695H122.149C126.987 63.4695 128.9 60.019 129.613 56.3434Z" fill="#003087"></path><path d="M7.22679 92.5225V85.1212H4.80158V83.5379H11.7002V85.1212H9.27503V92.5225H7.22679ZM13.5937 92.5225V83.5379H16.8105C18.9342 83.5379 20.2787 84.4049 20.2787 86.2647V86.3149C20.2787 87.672 19.4871 88.3883 18.4315 88.7024L20.8065 92.5225H18.6451L16.4964 89.0543H15.6168V92.5225H13.5937ZM15.6168 87.672H16.7603C17.7781 87.672 18.2933 87.2448 18.2933 86.3778V86.3275C18.2933 85.4102 17.7404 85.096 16.7603 85.096H15.6168V87.672ZM22.6646 92.5225V83.5379H28.5203V85.1212H24.6878V87.2197H27.7538V88.7024H24.6878V90.9392H28.7214V92.5225H22.6646ZM30.0625 92.5225L33.0155 83.5379H35.6669L38.5822 92.5225H36.4585L35.8428 90.5245H32.5882L31.9725 92.5225H30.0625ZM34.2218 85.1966L33.0281 89.0794H35.403L34.2218 85.1966ZM43.3959 92.6607C40.933 92.6607 39.802 91.5046 39.6889 89.7077H41.6367C41.7246 90.5119 42.0639 91.1779 43.3959 91.1779C44.288 91.1779 44.8786 90.6878 44.8786 89.9842C44.8786 89.2679 44.5017 89.0166 43.1823 88.8155C40.8827 88.5139 39.9403 87.8228 39.9403 86.0887C39.9403 84.5557 41.222 83.4122 43.2074 83.4122C45.2305 83.4122 46.4117 84.3169 46.575 86.1013H44.7027C44.5771 85.2845 44.0996 84.9075 43.2074 84.9075C42.3152 84.9075 41.8628 85.3222 41.8628 85.9254C41.8628 86.5662 42.1519 86.8678 43.5341 87.0689C45.708 87.3453 46.8264 87.9359 46.8264 89.7957C46.8264 91.3915 45.5195 92.6607 43.3959 92.6607ZM52.4906 92.6607C50.1282 92.6607 48.7837 91.4041 48.7837 89.0166V83.5379H50.8319V88.8909C50.8319 90.3863 51.2717 91.0397 52.5032 91.0397C53.7095 91.0397 54.2373 90.4617 54.2373 88.8155V83.5379H56.2855V88.9412C56.2855 91.3915 54.9158 92.6607 52.4906 92.6607ZM58.7768 92.5225V83.5379H61.9936C64.1173 83.5379 65.4618 84.4049 65.4618 86.2647V86.3149C65.4618 87.672 64.6702 88.3883 63.6146 88.7024L65.9896 92.5225H63.8283L61.6795 89.0543H60.7999V92.5225H58.7768ZM60.7999 87.672H61.9434C62.9612 87.672 63.4764 87.2448 63.4764 86.3778V86.3275C63.4764 85.4102 62.9235 85.096 61.9434 85.096H60.7999V87.672ZM67.8478 92.5225V83.5379H73.7035V85.1212H69.8709V87.2197H72.937V88.7024H69.8709V90.9392H73.9045V92.5225H67.8478ZM79.4135 92.5225V83.5379H81.4617V92.5225H79.4135ZM87.2193 92.6607C84.7564 92.6607 83.6255 91.5046 83.5124 89.7077H85.4601C85.5481 90.5119 85.8874 91.1779 87.2193 91.1779C88.1115 91.1779 88.7021 90.6878 88.7021 89.9842C88.7021 89.2679 88.3251 89.0166 87.0057 88.8155C84.7062 88.5139 83.7637 87.8228 83.7637 86.0887C83.7637 84.5557 85.0454 83.4122 87.0308 83.4122C89.054 83.4122 90.2351 84.3169 90.3985 86.1013H88.5262C88.4005 85.2845 87.923 84.9075 87.0308 84.9075C86.1387 84.9075 85.6863 85.3222 85.6863 85.9254C85.6863 86.5662 85.9753 86.8678 87.3576 87.0689C89.5315 87.3453 90.6498 87.9359 90.6498 89.7957C90.6498 91.3915 89.343 92.6607 87.2193 92.6607ZM92.7439 92.5225V83.5379H94.7796V90.9266H98.4362V92.5225H92.7439ZM99.7613 92.5225L102.714 83.5379H105.366L108.281 92.5225H106.157L105.542 90.5245H102.287L101.671 92.5225H99.7613ZM103.921 85.1966L102.727 89.0794H105.102L103.921 85.1966ZM110.137 92.5225V83.5379H112.5L115.918 89.4564V83.5379H117.727V92.5225H115.691L111.947 86.1264V92.5225H110.137ZM122.324 90.9392H123.153C124.963 90.9392 125.817 89.9213 125.817 88.0616V87.9611C125.817 86.1139 125.026 85.1212 123.128 85.1212H122.324V90.9392ZM120.288 92.5225V83.5379H123.229C126.383 83.5379 127.941 85.2468 127.941 87.9359V88.0364C127.941 90.7255 126.37 92.5225 123.216 92.5225H120.288Z" fill="#003087"></path></svg>