<svg xmlns="http://www.w3.org/2000/svg" width="100%" viewBox="0 0 141 141" fill="none" class="nav_menu_icon"><path d="M70.6 141C31.7672 141 0.200195 109.433 0.200195 70.6C0.200195 31.7672 31.7672 0.200195 70.6 0.200195C109.433 0.200195 141 31.7672 141 70.6C141 109.433 109.433 141 70.6 141ZM70.6 2.31642C32.9312 2.31642 2.31642 32.9312 2.31642 70.6C2.31642 108.269 32.9312 138.884 70.6 138.884C108.269 138.884 138.884 108.269 138.884 70.6C138.884 32.9312 108.269 2.31642 70.6 2.31642Z" fill="#f7f4f1"></path><path d="M87.8122 96.0652V70.1415H60.4424V68.1663H87.8122V45.0995C87.8122 39.7031 87.1421 38.7508 78.8183 38.7508H78.4656V36.7756H105.906V38.7508H105.553C97.2647 38.7508 96.6651 39.6325 96.6651 45.0995V96.03C96.6651 101.25 97.4411 102.379 105.553 102.379H105.906V104.354H78.4656V102.379H78.8183C87.0363 102.379 87.8122 101.25 87.8122 96.03" fill="#f7f4f1"></path><path d="M62.7353 38.7859H62.3826C54.0588 38.7859 53.3887 39.7382 53.3887 45.1346V96.0651C53.3887 101.285 54.1646 102.414 62.3826 102.414H62.7353V104.389H35.2949V102.414H35.6476C43.7951 102.414 44.5358 101.285 44.5358 96.0651V45.1346C44.5358 39.6677 43.9362 38.7859 35.6476 38.7859H35.2949V36.8108H62.7353V38.7859Z" fill="#f7f4f1"></path></svg>