<svg width="24" height="24" viewBox="0 0 24 24" fill="none" xmlns="http://www.w3.org/2000/svg">
<g clip-path="url(#clip0_46_234)">
<mask id="mask0_46_234" style="mask-type:luminance" maskUnits="userSpaceOnUse" x="0" y="0" width="24" height="24">
<path d="M23.9176 0.462891H0V23.32H23.9176V0.462891Z" fill="white"/>
</mask>
<g mask="url(#mask0_46_234)">
<path d="M1.4491 18.8311V20.5929H2.78578V20.281H1.80829V19.8241H2.66942V19.5137H1.80829V19.1428H2.74389V18.8311H1.4491Z" fill="#003087"/>
<path d="M4.76119 20.5206L4.57346 20.3406C4.7033 20.1577 4.76754 19.9362 4.75577 19.7122C4.75577 18.8844 4.14211 18.7812 3.90938 18.7812C3.67663 18.7812 3.06299 18.8836 3.06299 19.7122C3.06299 20.5408 3.67663 20.6432 3.90938 20.6432C4.06747 20.6441 4.22298 20.6031 4.36011 20.5245L4.57113 20.7239L4.76119 20.5206ZM3.92799 20.1126L4.10798 20.2785C4.04639 20.3104 3.97793 20.3266 3.9086 20.3258C3.70844 20.3258 3.42916 20.2041 3.42916 19.7114C3.42916 19.2188 3.70844 19.0909 3.9086 19.0909C4.10875 19.0909 4.38726 19.2126 4.38726 19.7114C4.39335 19.8414 4.36668 19.9707 4.30969 20.0877L4.12194 19.9139L3.92799 20.1126Z" fill="#003087"/>
<path d="M6.48695 19.9778C6.48695 20.4433 6.20767 20.6397 5.76082 20.6397C5.60023 20.6397 5.35973 20.6008 5.20302 20.4271C5.10607 20.3066 5.05692 20.1548 5.06493 20.0004V18.8328H5.44119V19.9756C5.44119 20.2223 5.58238 20.3293 5.75152 20.3293C6.0052 20.3293 6.10759 20.2052 6.10759 19.9919V18.8281H6.48463V19.974L6.48695 19.9778Z" fill="#003087"/>
<path d="M7.474 19.2267L7.6951 19.9249H7.24437L7.474 19.2267ZM7.26608 18.8311L6.6377 20.5936H7.02559L7.14972 20.2282H7.79983L7.91 20.5936H8.31186L7.69123 18.8311H7.26608Z" fill="#003087"/>
<path d="M8.59973 18.8311V20.5929H9.84487V20.2716H8.96746V18.8311H8.59973Z" fill="#003087"/>
<path d="M11.9295 18.8311V19.4981H11.2429V18.8311H10.8721V20.5929H11.2429V19.8016H11.9295V20.5929H12.2972V18.8311H11.9295Z" fill="#003087"/>
<path d="M12.631 19.7122C12.631 20.54 13.2447 20.6432 13.4774 20.6432C13.7102 20.6432 14.3238 20.5439 14.3238 19.7122C14.3238 18.8806 13.7133 18.7812 13.4774 18.7812C13.2416 18.7812 12.631 18.8806 12.631 19.7122ZM12.9988 19.7122C12.9988 19.2197 13.2773 19.0915 13.4774 19.0915C13.6775 19.0915 13.956 19.2165 13.956 19.7122C13.956 20.208 13.6768 20.3329 13.4774 20.3329C13.2781 20.3329 12.9988 20.208 12.9988 19.7122Z" fill="#003087"/>
<path d="M16.0829 19.9778C16.0829 20.4433 15.8036 20.6397 15.3576 20.6397C15.1939 20.6397 14.9557 20.6008 14.7989 20.4271C14.702 20.3066 14.6529 20.1548 14.6609 20.0004V18.8328H15.0371V19.9756C15.0371 20.2223 15.1784 20.3293 15.3521 20.3293C15.6035 20.3293 15.7059 20.2052 15.7059 19.9919V18.8281H16.0829V19.974V19.9778Z" fill="#003087"/>
<path d="M16.7566 20.0497C16.7566 20.1466 16.8094 20.3352 17.1305 20.3352C17.3042 20.3352 17.4982 20.2933 17.4982 20.1024C17.4982 19.9674 17.3648 19.9287 17.1801 19.8837L16.9925 19.8394C16.7038 19.7728 16.4307 19.7122 16.4307 19.3243C16.4307 19.1249 16.5362 18.7812 17.108 18.7812C17.6511 18.7812 17.7953 19.1351 17.7969 19.3515H17.4432C17.4323 19.2739 17.4043 19.0862 17.0808 19.0862C16.9427 19.0862 16.7767 19.139 16.7767 19.2987C16.7767 19.4337 16.8869 19.4648 16.9622 19.4818L17.392 19.5873C17.6325 19.6447 17.8574 19.7425 17.8574 20.0606C17.8574 20.592 17.3144 20.6385 17.1592 20.6385C16.5168 20.6385 16.4067 20.2677 16.4067 20.0489L16.7566 20.0497Z" fill="#003087"/>
<path d="M18.5232 18.8311H18.1555V20.5937H18.5232V18.8311Z" fill="#003087"/>
<path d="M19.9954 18.8311V20.0591H19.9876L19.2862 18.8311H18.9022V20.5929H19.2452V19.3369H19.2506L19.9706 20.5929H20.3359V18.8311H19.9954Z" fill="#003087"/>
<path d="M21.5707 19.644H22.307V20.5928H22.061L22.0284 20.3725C21.9654 20.4582 21.8823 20.5272 21.7864 20.5734C21.6905 20.6196 21.5848 20.6417 21.4784 20.6377C21.0547 20.6377 20.67 20.3336 20.67 19.7169C20.67 19.2359 20.9353 18.7812 21.5311 18.7812C22.0742 18.7812 22.2859 19.1335 22.307 19.3771H21.9392C21.9392 19.3073 21.8151 19.087 21.5513 19.087C21.2875 19.087 21.0447 19.2693 21.0447 19.7208C21.0447 20.2017 21.3076 20.3266 21.5599 20.3266C21.6374 20.3266 21.9113 20.2963 21.9857 19.9387H21.5761V19.6416L21.5707 19.644Z" fill="#003087"/>
<path d="M1.36987 22.389C1.36987 23.2168 1.9843 23.32 2.21626 23.32C2.44822 23.32 3.06343 23.2176 3.06343 22.389C3.06343 21.5604 2.44899 21.458 2.21626 21.458C1.98352 21.458 1.36987 21.5573 1.36987 22.389ZM1.73838 22.389C1.73838 21.8963 2.01766 21.7683 2.21782 21.7683C2.41796 21.7683 2.69648 21.8924 2.69648 22.389C2.69648 22.8854 2.41719 23.0096 2.21782 23.0096C2.01843 23.0096 1.73838 22.8854 1.73838 22.389Z" fill="#003087"/>
<path d="M4.07244 22.6345H4.49525C4.96848 22.6345 5.05692 22.2334 5.05692 22.0736C5.05692 21.7276 4.84901 21.5088 4.50921 21.5088H3.70471V23.2722H4.07244V22.6345ZM4.07244 22.3296V21.8121H4.36569C4.59222 21.8121 4.68997 21.8835 4.68997 22.0558C4.68997 22.1334 4.68997 22.3296 4.41223 22.3296H4.07244Z" fill="#003087"/>
<path d="M6.05681 22.6345H6.4804C6.95286 22.6345 7.04129 22.2334 7.04129 22.0736C7.04129 21.7276 6.83416 21.5088 6.49824 21.5088H5.68909V23.2722H6.05681V22.6345ZM6.05681 22.3296V21.8121H6.34696C6.57969 21.8121 6.67357 21.8835 6.67357 22.0558C6.67357 22.1334 6.67357 22.3296 6.39661 22.3296H6.05681Z" fill="#003087"/>
<path d="M7.59424 22.389C7.59424 23.2168 8.20788 23.32 8.44063 23.32C8.67336 23.32 9.28702 23.2176 9.28702 22.389C9.28702 21.5604 8.67336 21.458 8.44063 21.458C8.20788 21.458 7.59424 21.5573 7.59424 22.389ZM7.96274 22.389C7.96274 21.8963 8.24202 21.7683 8.44139 21.7683C8.64078 21.7683 8.92083 21.8924 8.92083 22.389C8.92083 22.8854 8.64155 23.0096 8.44139 23.0096C8.24124 23.0096 7.96274 22.8854 7.96274 22.389Z" fill="#003087"/>
<path d="M9.92566 23.2724H10.2887V22.5804H10.6681C10.9427 22.5804 10.9559 22.675 10.9559 22.9155C10.9507 23.0357 10.9637 23.1561 10.9947 23.2724H11.4043V23.2251C11.3267 23.1948 11.3267 23.1311 11.3267 22.8737C11.3267 22.5447 11.2492 22.4919 11.1056 22.4252C11.1897 22.394 11.2614 22.3366 11.3102 22.2614C11.3589 22.1862 11.3822 22.0973 11.3764 22.0078C11.3764 21.8527 11.2911 21.5098 10.8233 21.5098H9.92566V23.2724ZM10.2887 22.2833V21.81H10.7472C10.9629 21.81 11.0048 21.9481 11.0048 22.0428C11.0048 22.2165 10.9109 22.2833 10.7201 22.2833H10.2887Z" fill="#003087"/>
<path d="M11.8464 21.5088V21.8207H12.3772V23.2706H12.7456V21.8207H13.2793V21.5088H11.8464Z" fill="#003087"/>
<path d="M15.2559 22.6544C15.2559 23.1199 14.9766 23.3177 14.5297 23.3177C14.37 23.3177 14.1287 23.2766 13.9719 23.1029C13.875 22.9824 13.8259 22.8305 13.8339 22.6761V21.5086H14.2101V22.6513C14.2101 22.8981 14.3544 23.0052 14.5251 23.0052C14.7765 23.0052 14.8789 22.8841 14.8789 22.6677V21.5039H15.2559V22.6505V22.6544Z" fill="#003087"/>
<path d="M17.0368 21.5088V22.7369H17.0346L16.3317 21.5088H15.9469V23.2706H16.2898V22.0146H16.2952L17.012 23.2706H17.3829V21.5088H17.0368Z" fill="#003087"/>
<path d="M18.4205 21.5088H18.0529V23.2714H18.4205V21.5088Z" fill="#003087"/>
<path d="M18.9591 21.5088V21.8207H19.4905V23.2706H19.8583V21.8207H20.3928V21.5088H18.9591Z" fill="#003087"/>
<path d="M21.9555 21.5088L21.6079 22.2745L21.2418 21.5088H20.8074L21.4156 22.6066V23.2706H21.7849V22.6128L22.3737 21.5088H21.9555Z" fill="#003087"/>
<path d="M3.89665 7.2852L11.8695 3.21152L19.753 7.2852V14.8142H3.89665V7.2852ZM11.8656 0.462891L-0.00402832 6.31003V9.05478H1.3218V17.2929H22.3209V9.05478H23.9183V6.31003L11.8656 0.462891Z" fill="#003087"/>
<path d="M15.5018 6.60449H8.14893V9.2608H15.5018V6.60449Z" fill="#003087"/>
<path d="M15.5018 10.6641H8.14893V13.3235H15.5018V10.6641Z" fill="#003087"/>
</g>
</g>
<defs>
<clipPath id="clip0_46_234">
<rect width="24" height="22.8571" fill="white" transform="translate(0 0.462891)"/>
</clipPath>
</defs>
</svg>
